<svg width="51" height="52" viewBox="0 0 51 52" fill="none" xmlns="http://www.w3.org/2000/svg">
<path d="M24.9053 12.0791C22.3685 12.0791 19.8887 12.8336 17.7794 14.2473C15.6701 15.661 14.0261 17.6702 13.0553 20.0211C12.0845 22.3719 11.8305 24.9587 12.3254 27.4543C12.8203 29.95 14.0419 32.2423 15.8357 34.0416C17.6295 35.8408 19.915 37.0661 22.403 37.5625C24.8911 38.059 27.47 37.8042 29.8138 36.8304C32.1575 35.8567 34.1607 34.2077 35.57 32.092C36.9794 29.9763 37.7317 27.4889 37.7317 24.9444C37.7318 23.2549 37.4001 21.5819 36.7556 20.0209C36.1111 18.46 35.1663 17.0416 33.9752 15.847C32.7842 14.6523 31.3701 13.7046 29.8139 13.0581C28.2577 12.4116 26.5897 12.079 24.9053 12.0791V12.0791ZM28.9835 31.5732C28.9355 31.6933 28.8624 31.8017 28.7692 31.8911C28.676 31.9806 28.5649 32.049 28.4432 32.0918C28.3215 32.1347 28.192 32.1509 28.0636 32.1394C27.9351 32.128 27.8106 32.0891 27.6983 32.0255L24.2163 29.3117L21.9816 31.3797C21.9297 31.4181 21.8691 31.4428 21.8052 31.4516C21.7413 31.4603 21.6763 31.4528 21.616 31.4298L22.0444 27.585L22.0581 27.5959L22.0669 27.52C22.0669 27.52 28.3326 21.7981 28.5878 21.5544C28.8462 21.3112 28.761 21.2585 28.761 21.2585C28.7757 20.9619 28.2973 21.2585 28.2973 21.2585L19.9954 26.6156L16.5381 25.4346C16.5381 25.4346 16.0071 25.2435 15.957 24.8235C15.9045 24.4067 16.5554 24.1802 16.5554 24.1802L30.3014 18.7028C30.3014 18.7028 31.4314 18.1978 31.4314 19.0341L28.9835 31.5732Z" fill="white"/>
</svg>
