<svg width="28" height="28" viewBox="0 0 28 28" fill="none" xmlns="http://www.w3.org/2000/svg">
<path d="M26.6004 23.7999V4.1999C26.6004 2.6599 25.3362 1.3999 23.7934 1.3999H4.20739C2.59739 1.3999 1.40039 2.5941 1.40039 4.1999V23.7999C1.40039 25.4071 2.59739 26.5999 4.20739 26.5999H23.7934C24.5363 26.5988 25.2486 26.3037 25.7745 25.779C26.3005 25.2543 26.5974 24.5428 26.6004 23.7999ZM21.258 16.2497C21.258 16.2497 22.8428 17.8135 23.2334 18.5387C23.2446 18.5541 23.2488 18.5681 23.253 18.5737C23.4112 18.8397 23.4518 19.0497 23.372 19.2037C23.2404 19.4599 22.7924 19.5887 22.6398 19.5999H19.8412C19.6452 19.5999 19.2392 19.5495 18.7464 19.2093C18.3684 18.9461 17.9946 18.5107 17.6306 18.0865C17.0874 17.4565 16.617 16.9105 16.1438 16.9105C16.0838 16.9104 16.0241 16.9203 15.9674 16.9399C15.6076 17.0547 15.1512 17.5657 15.1512 18.9307C15.1512 19.3577 14.8152 19.6013 14.5772 19.6013H13.2948C12.858 19.6013 10.583 19.4487 8.56839 17.3221C6.09599 14.7181 3.87559 9.4947 3.85599 9.4485C3.71599 9.1111 4.00579 8.9277 4.32079 8.9277H7.14879C7.52819 8.9277 7.64999 9.1573 7.73679 9.3631C7.83479 9.5969 8.20439 10.5405 8.80919 11.6017C9.79339 13.3279 10.3996 14.0307 10.8826 14.0307C10.9729 14.0302 11.0616 14.0066 11.1402 13.9621C11.7716 13.6135 11.654 11.3623 11.626 10.8975C11.626 10.8093 11.6246 9.8909 11.3026 9.4499C11.0702 9.1307 10.6768 9.0089 10.4388 8.9627C10.5358 8.82898 10.6635 8.72048 10.8112 8.6463C11.2438 8.4307 12.0236 8.3999 12.7992 8.3999H13.2304C14.0718 8.4111 14.2902 8.4657 14.594 8.5427C15.2086 8.6897 15.2212 9.0887 15.1666 10.4467C15.1512 10.8331 15.1344 11.2713 15.1344 11.7851C15.1344 11.8957 15.1302 12.0175 15.1302 12.1435C15.1106 12.8379 15.0882 13.6233 15.5782 13.9453C15.6416 13.985 15.7148 14.0063 15.7896 14.0069C15.9604 14.0069 16.4714 14.0069 17.856 11.6311C18.465 10.5825 18.934 9.3449 18.9662 9.2525C19.0151 9.1526 19.0859 9.06503 19.1734 8.9963C19.2451 8.95906 19.325 8.94029 19.4058 8.9417H22.7308C23.0948 8.9417 23.3412 8.9963 23.3874 9.1349C23.4672 9.3575 23.372 10.0365 21.853 12.0889L21.1768 12.9849C19.7992 14.7881 19.7992 14.8805 21.258 16.2497V16.2497Z" fill="#353333" fill-opacity="0.9"/>
</svg>
