<svg width="49" height="50" viewBox="0 0 49 50" fill="none" xmlns="http://www.w3.org/2000/svg">
<path d="M35.6448 15.0755C35.3944 14.4251 35.011 13.8345 34.5192 13.3417C34.0274 12.8489 33.4381 12.4649 32.7894 12.2145C31.8961 11.8826 30.9526 11.7072 30.0001 11.6959C28.4161 11.6236 27.9412 11.6055 23.9286 11.6055C19.916 11.6055 19.4411 11.6236 17.8571 11.6959C16.9035 11.7069 15.959 11.8823 15.0648 12.2145C14.4163 12.4656 13.8275 12.8502 13.3362 13.3435C12.8449 13.8368 12.4621 14.4278 12.2124 15.0786C11.8815 15.9745 11.7067 16.9209 11.6954 17.8763C11.6233 19.4651 11.6052 19.9415 11.6052 23.9663C11.6052 27.9911 11.6233 28.4674 11.6954 30.0562C11.7063 31.0127 11.8812 31.9601 12.2124 32.857C12.4628 33.5075 12.8462 34.0981 13.338 34.5909C13.8298 35.0837 14.419 35.4676 15.0678 35.7181C15.9611 36.05 16.9046 36.2254 17.8571 36.2367C19.4411 36.309 19.916 36.3271 23.9286 36.3271C27.9412 36.3271 28.4161 36.309 30.0001 36.2367C30.9536 36.2257 31.8981 36.0503 32.7924 35.7181C33.4409 35.467 34.0297 35.0823 34.521 34.5891C35.0123 34.0958 35.3951 33.5047 35.6448 32.854C35.9756 31.958 36.1505 31.0117 36.1618 30.0562C36.2339 28.4674 36.2519 27.9911 36.2519 23.9663C36.2519 19.9415 36.2339 19.4651 36.1618 17.8763C36.1508 16.9199 35.976 15.9725 35.6448 15.0755ZM23.9286 31.7084C22.402 31.7084 20.9097 31.2543 19.6403 30.4036C18.371 29.5529 17.3817 28.3437 16.7975 26.9291C16.2133 25.5144 16.0604 23.9577 16.3583 22.4559C16.6561 20.9541 17.3912 19.5745 18.4707 18.4918C19.5502 17.409 20.9255 16.6717 22.4227 16.373C23.92 16.0742 25.472 16.2275 26.8824 16.8135C28.2928 17.3995 29.4982 18.3918 30.3464 19.665C31.1945 20.9382 31.6472 22.435 31.6472 23.9663C31.6472 26.0196 30.834 27.9888 29.3865 29.4408C27.9389 30.8927 25.9757 31.7084 23.9286 31.7084V31.7084ZM31.9508 17.7286C31.5941 17.7286 31.2454 17.6225 30.9489 17.4237C30.6523 17.225 30.4211 16.9425 30.2846 16.6119C30.1481 16.2814 30.1124 15.9177 30.182 15.5668C30.2516 15.2159 30.4234 14.8936 30.6756 14.6406C30.9278 14.3876 31.2491 14.2153 31.599 14.1456C31.9488 14.0758 32.3114 14.1116 32.6409 14.2485C32.9705 14.3854 33.2521 14.6173 33.4503 14.9147C33.6484 15.2122 33.7542 15.5619 33.7542 15.9197C33.7542 16.3994 33.5642 16.8595 33.226 17.1988C32.8878 17.538 32.4291 17.7286 31.9508 17.7286V17.7286Z" fill="white"/>
<path d="M24.5294 22.7591C25.5254 22.7591 26.3328 23.569 26.3328 24.568C26.3328 25.5671 25.5254 26.377 24.5294 26.377C23.5334 26.377 22.726 25.5671 22.726 24.568C22.726 23.569 23.5334 22.7591 24.5294 22.7591Z" fill="white"/>
</svg>
