<svg width="34" height="34" viewBox="0 0 34 34" fill="none" xmlns="http://www.w3.org/2000/svg">
<g clip-path="url(#clip0_11_918)">
<path d="M33.2925 9.21828C33.1 8.53152 32.725 7.90977 32.2074 7.41911C31.6751 6.91337 31.0228 6.55159 30.3119 6.36794C27.6514 5.66669 16.9924 5.66669 16.9924 5.66669C12.5488 5.61614 8.10623 5.8385 3.68987 6.33253C2.97898 6.52975 2.32784 6.8996 1.79437 7.40919C1.27021 7.91353 0.890541 8.53544 0.692208 9.21686C0.215773 11.7835 -0.015712 14.3896 0.000874343 17C-0.0161257 19.6081 0.214791 22.2134 0.692208 24.7832C0.886291 25.4618 1.26454 26.0809 1.79012 26.5809C2.31571 27.081 2.97021 27.4423 3.68987 27.6335C6.38579 28.3334 16.9924 28.3334 16.9924 28.3334C21.4416 28.384 25.8898 28.1616 30.3119 27.6675C31.0228 27.4839 31.6751 27.1221 32.2074 26.6164C32.7315 26.1163 33.1041 25.4944 33.2911 24.8172C33.78 22.2515 34.0177 19.6444 34.0009 17.0326C34.0376 14.4098 33.8002 11.7903 33.2925 9.21686V9.21828ZM13.6037 21.8507V12.1508L22.472 17.0014L13.6037 21.8507Z" fill="#353333" fill-opacity="0.9"/>
</g>
<defs>
<clipPath id="clip0_11_918">
<rect width="34" height="34" fill="white"/>
</clipPath>
</defs>
</svg>
